<?xml version="1.0" encoding="UTF-8" standalone="no"?>
<!-- Created with Inkscape (http://www.inkscape.org/) -->

<svg version="1.1" xmlns="http://www.w3.org/2000/svg" width="303" height="303">
  <defs>
   <radialGradient id="purple_fill" cx="0.5" cy="0.5" r="0.5" fx="0.25" fy="0.25">
      <stop offset="0%" stop-color="#ff00ff" />
      <stop offset="50%" stop-color="#d020d0" />
      <stop offset="90%" stop-color="#a000a0" />
      <stop offset="100%" stop-color="#600060" />
   </radialGradient>
  </defs>
  <g
     id="layer1"
     transform="translate(-295.5,-12)">
    <circle
       style="fill: url(#purple_fill); fill-opacity: 1; fill-rule: nonzero; stroke: #000000; stroke-width: 16;"
       id="path4136"
       cx="446.73996"
       cy="163.17543"
       r="143" />
   <g transform="matrix(0.8 0 0 0.8 88 32)">
      <path
         id="path4159"
         d="m 548.80654,134.01734 c 0,-56.865669 -45.20091,-102.066581 -102.06658,-102.066581 -56.86567,0 -102.06658,45.200912 -102.06658,102.066581 0,20.41331 5.83237,37.91043 16.03903,53.94948 l 86.02755,106.44085 86.02754,-106.44085 c 10.20666,-16.03905 16.03904,-33.53617 16.03904,-53.94948 z m -102.06658,43.74282 c -23.32951,0 -43.74282,-20.41332 -43.74282,-43.74282 0,-23.32951 20.41331,-43.742827 43.74282,-43.742827 23.3295,0 43.74282,20.413317 43.74282,43.742827 0,23.3295 -20.41332,43.74282 -43.74282,43.74282 z"
         style="fill: #ffffff; fill-opacity: 1; stroke: none;" />
   </g>
  </g>
</svg>
