<?xml version="1.0" encoding="UTF-8" standalone="no"?>
<!DOCTYPE svg PUBLIC "-//W3C//DTD SVG 20010904//EN" "http://www.w3.org/TR/2001/REC-SVG-20010904/DTD/svg10.dtd">
<svg version="1.0" xmlns="http://www.w3.org/2000/svg" width="511.000000pt" height="480.000000pt" viewBox="0 0 511.000000 480.000000" preserveAspectRatio="xMidYMid meet">

<g transform="translate(4.000000,475.000000) scale(0.09800,-0.09800)" fill="#000000" stroke="#000000" stroke-width="50">
<path d="M1422 4789 c-121 -21 -294 -99 -442 -200 -495 -338 -859 -998 -965 -1749 -31 -221 -16 -572 35 -817 86 -413 286 -816 569 -1145 340 -394 812 -682 1323 -808 232 -57 309 -65 613 -65 333 0 443 14 730 95 386 108 825 374 1111 672 365 381 593 835 685 1363 27 154 37 535 20 723 -47 496 -204 935 -459 1282 -92 125 -311 335 -436 419 -124 82 -291 166 -416 208 l-85 28 -1115 1 c-613 1 -1139 -2 -1168 -7z m2291 -188 c101 -26 268 -107 391 -188 114 -76 311 -265 394 -378 179 -243 311 -552 377 -879 44 -223 50 -288 50 -591 0 -259 -3 -304 -24 -420 -179 -1000 -936 -1757 -1936 -1936 -116 -21 -160 -24 -410 -24 -305 1 -369 8 -598 65 -777 197 -1411 789 -1662 1555 -157 478 -155 987 5 1490 189 590 529 1038 945 1244 169 83 100 79 1316 80 1033 1 1079 0 1152 -18z"/>
<path d="M1622 4459 c-122 -16 -231 -99 -289 -218 -24 -50 -28 -67 -28 -156 0 -90 3 -106 30 -160 37 -76 109 -149 183 -183 50 -24 69 -27 162 -27 96 0 110 3 164 29 79 39 140 102 179 184 29 60 32 77 32 157 0 77 -4 99 -27 148 -37 78 -78 128 -137 166 -84 54 -170 73 -269 60z m182 -50 c77 -28 148 -96 188 -177 29 -59 33 -76 33 -147 -1 -65 -5 -91 -27 -137 -35 -75 -98 -141 -166 -175 -78 -38 -194 -44 -274 -13 -76 28 -155 101 -193 177 -26 51 -29 68 -29 148 0 78 3 98 27 147 35 71 119 150 190 177 71 27 178 28 251 0z"/>
<path d="M2497 4458 c-157 -20 -291 -153 -316 -313 -32 -207 113 -406 316 -433 259 -34 472 179 431 433 -32 205 -218 340 -431 313z m221 -68 c71 -38 110 -77 150 -153 24 -47 27 -62 27 -152 0 -90 -3 -105 -28 -153 -35 -67 -92 -124 -159 -159 -48 -25 -63 -28 -153 -28 -90 0 -105 3 -153 28 -67 35 -124 92 -159 159 -25 48 -28 63 -28 153 0 89 3 105 27 151 37 70 72 110 125 141 77 45 112 54 203 50 74 -3 93 -7 148 -37z"/>
<path d="M3374 4459 c-123 -16 -231 -98 -287 -217 -28 -60 -32 -77 -32 -157 0 -80 4 -97 32 -157 39 -82 100 -145 179 -184 54 -26 68 -29 164 -29 93 0 112 3 162 27 74 34 146 107 183 183 27 54 30 70 29 160 0 110 -13 151 -73 232 -77 105 -216 161 -357 142z m181 -50 c73 -27 157 -104 190 -175 38 -80 43 -164 16 -255 -20 -63 -31 -81 -84 -134 -83 -83 -149 -109 -263 -103 -139 7 -242 78 -302 206 -22 46 -26 72 -27 137 0 71 4 88 33 147 39 80 111 148 185 177 72 27 179 28 252 0z"/>
<path d="M2485 3584 c-98 -24 -178 -73 -229 -140 -133 -174 -90 -437 90 -551 258 -164 586 14 586 317 0 163 -91 295 -242 354 -45 18 -166 29 -205 20z m222 -64 c262 -129 257 -504 -9 -626 -53 -24 -76 -28 -143 -28 -67 0 -90 4 -143 28 -253 116 -273 473 -34 613 105 62 221 66 329 13z"/>
<path d="M1195 3423 c-258 -35 -503 -178 -654 -381 -394 -533 -147 -1297 484 -1495 502 -157 1038 117 1203 616 167 502 -102 1043 -603 1214 -130 44 -305 63 -430 46z m276 -38 c374 -65 663 -338 756 -711 26 -108 24 -325 -6 -434 -189 -706 -1051 -946 -1566 -435 -122 121 -207 272 -251 445 -28 112 -26 335 4 448 128 473 588 770 1063 687z"/>
<path d="M3630 3415 c-430 -81 -741 -414 -792 -846 -22 -190 22 -407 118 -575 317 -556 1069 -660 1520 -210 121 122 210 276 255 446 33 122 34 348 1 470 -92 347 -363 616 -703 700 -110 28 -298 35 -399 15z m323 -30 c365 -64 651 -326 749 -687 19 -70 23 -107 22 -238 -1 -139 -3 -164 -28 -245 -102 -338 -353 -578 -692 -662 -106 -26 -314 -23 -428 5 -335 84 -596 342 -688 679 -28 103 -30 334 -5 437 92 371 381 644 750 711 98 18 218 18 320 0z"/>
<path d="M2422 1605 c-214 -48 -390 -220 -447 -435 -19 -72 -19 -220 0 -295 55 -210 209 -368 420 -431 81 -24 239 -24 320 0 264 79 435 304 435 573 0 109 -14 172 -60 268 -69 143 -189 249 -341 302 -92 32 -234 40 -327 18z m309 -44 c176 -56 327 -216 374 -397 19 -73 19 -212 0 -284 -55 -209 -226 -370 -440 -415 -88 -18 -132 -18 -220 0 -214 45 -385 206 -440 415 -19 72 -19 211 0 284 40 152 152 290 298 367 115 61 293 73 428 30z"/>
<path d="M1425 1391 c-235 -62 -353 -314 -252 -535 34 -73 103 -140 185 -179 60 -28 77 -32 157 -32 80 0 97 4 157 32 294 139 294 550 0 689 -60 28 -187 41 -247 25z m209 -41 c146 -55 227 -173 228 -332 1 -64 -4 -86 -29 -140 -135 -287 -537 -270 -649 27 -23 61 -23 171 0 233 21 57 69 126 111 158 95 72 231 94 339 54z"/>
<path d="M3504 1391 c-104 -27 -199 -103 -244 -195 -98 -199 -21 -425 178 -519 60 -28 77 -32 157 -32 80 0 97 4 157 32 295 139 295 550 0 689 -60 28 -186 41 -248 25z m210 -41 c146 -55 228 -173 229 -331 1 -64 -4 -85 -30 -141 -37 -79 -94 -137 -171 -175 -49 -24 -69 -27 -147 -27 -77 0 -98 3 -145 26 -74 37 -137 100 -173 176 -25 54 -30 75 -29 140 0 87 17 141 62 207 85 124 260 178 404 125z"/>
</g>
</svg>