<svg version="1.1" width="1000" height="1000" xmlns="http://www.w3.org/2000/svg">
 <defs>
    <radialGradient id="green_fill_ltd" cx="0.5" cy="0.5" r="0.5" fx="0.25" fy="0.25">
        <stop offset="0%" stop-color="#00aa00" />
        <stop offset="50%" stop-color="#008800" />
        <stop offset="75%" stop-color="#006600" />
        <stop offset="100%" stop-color="#004400" />
    </radialGradient>
 </defs>
 <circle r="500" cx="500" cy="500" fill="url(#green_fill_ltd)" />
 <g transform="matrix(1.4 0 0 1.4 500 520)" id="579313">
    <g>
            <g transform="matrix(12 0 0 12 0 -125)">
    <path style="stroke: rgb(255,255,0); stroke-width: 2; stroke-dasharray: none; stroke-linecap: round; stroke-dashoffset: 0; stroke-linejoin: miter; stroke-miterlimit: 4; is-custom-font: none; font-file-url: none; fill: rgb(255,255,0); fill-rule: nonzero; opacity: 1;" transform=" translate(-32, -22)" d="M 30 7 h 4 v 31 h -4 z"/>
    </g>
            <g transform="matrix(12 0 0 12 -62.5 37.5)">
    <path style="stroke: rgb(255,255,0); stroke-width: 2; stroke-dasharray: none; stroke-linecap: round; stroke-dashoffset: 0; stroke-linejoin: miter; stroke-miterlimit: 4; is-custom-font: none; font-file-url: none; fill: rgb(255,255,0); fill-rule: nonzero; opacity: 1;" transform=" translate(-27, -35)" d="M 36.1 27 l 1.9 3.6 L 17.9 43 L 16 39.4 z"/>
    </g>
            <g transform="matrix(18 0 0 18 0 0)">
    <circle style="stroke: none; stroke-width: 1; stroke-dasharray: none; stroke-linecap: round; stroke-dashoffset: 0; stroke-linejoin: miter; stroke-miterlimit: 4; is-custom-font: none; font-file-url: none; fill: rgb(255,255,0); fill-rule: nonzero; opacity: 1;" cx="0" cy="0" r="4"/>
    </g>
            <g transform="matrix(15 0 0 15 0 0)">
    <circle style="stroke: none; stroke-width: 1; stroke-dasharray: none; stroke-linecap: round; stroke-dashoffset: 0; stroke-linejoin: miter; stroke-miterlimit: 4; is-custom-font: none; font-file-url: none; fill: rgb(0,0,0); fill-rule: nonzero; opacity: 1;" cx="0" cy="0" r="3"/>
    </g>
    </g>
    </g>
</svg>
