<svg xmlns="http://www.w3.org/2000/svg" xmlns:xlink="http://www.w3.org/1999/xlink" viewBox="0 0 725.22 673.73"><defs><style>.cls-1{fill:url(#radial-gradient);}</style><radialGradient id="radial-gradient" cx="713.16" cy="44.4" r="865.84" gradientUnits="userSpaceOnUse"><stop offset="0" stop-color="#ff6060"/><stop offset="0.5" stop-color="#d02020"/><stop offset="0.9" stop-color="#a00000"/><stop offset="1" stop-color="#600000"/></radialGradient></defs><title>icon1</title><g id="Layer_2" data-name="Layer 2"><g id="Layer_1-2" data-name="Layer 1"><path class="cls-1" d="M533.08,152H192.14a85.79,85.79,0,0,0-85.69,85.69V417.57c0,141.25,114.91,256.16,256.16,256.16S618.77,558.82,618.77,417.57V237.68A85.79,85.79,0,0,0,533.08,152Zm42.79,265.58c0,117.59-95.67,213.26-213.26,213.26S149.35,535.16,149.35,417.57V237.68a42.84,42.84,0,0,1,42.79-42.8H533.08a42.84,42.84,0,0,1,42.79,42.8Z"/><path class="cls-1" d="M362.6,0C256,.45,132.19,18.35,0,70.65c0,0,5.9,15.84,20.31,42C141.22,59.9,259.38,43.14,362.6,43.93h0c103.21-.79,221.35,16,342.29,68.68,16.16-29.1,20.32-42,20.32-42C593,18.35,469.21.45,362.6,0Z"/><polygon class="cls-1" points="421.51 240.97 243.64 443.19 350.81 443.19 303.7 584.75 481.58 382.53 374.41 382.53 421.51 240.97"/></g></g></svg>