<?xml version="1.0" encoding="UTF-8" standalone="no"?>
<svg xmlns="http://www.w3.org/2000/svg" width="451" height="451" version="1.0">
  <path fill="#888" d="M38 13h375c13.85 0 25 11.15 25 25v375c0 13.85-11.15 25-25 25H38c-13.85 0-25-11.15-25-25V38c0-13.85 11.15-25 25-25z" color="#000" overflow="visible" style="marker:none"/>
  <path fill="#fff" d="M180.95162 412.82907c-10.41667-.9223-19.78961-2.8684-29.0078-6.0229-42.14695-14.4232-73.433508-51.83941-80.726912-96.54291-.426471-2.614-.934867-6.2329-1.129784-8.0422-.476624-4.4242-.474669-20.0007.003058-24.39721 1.585138-14.5879 5.396585-28.1575 11.549567-41.1189 11.659099-24.5602 30.949261-44.6283 54.558461-56.75861l3.4107-1.7524.15651 1.4317c.16406 1.5007 2.55369 33.75821 2.55369 34.47201 0 .2264-.99256 1.088-2.20566 1.9148-5.13855 3.5021-11.33767 9.0742-15.54937 13.9764-11.77103 13.7011-18.81591 29.2695-21.58376 47.698-.51053 3.39911-.59943 5.12621-.61375 11.92441-.01722 8.1709.1904 10.9925 1.22039 16.5847 3.37897 18.3459 11.50929 34.0987 24.41061 47.2965 4.48359 4.5866 8.25041 7.7367 13.59512 11.3692 20.59883 14.00011 46.12488 18.28331 70.16074 11.77261 5.85678-1.5864 10.47062-3.4448 17.32176-6.9767 18.34007-9.45491 33.59773-26.49391 41.36249-46.19171 2.31289-5.8674 4.3421-13.2941 5.21184-19.0747.25895-1.7212.53301-3.1282.609-3.1265.07598.0016 4.85171 9.901 10.61271 21.9986l10.47457 21.9956-1.35639 2.5914c-14.07606 26.89281-38.49378 48.14041-67.04791 58.34331-8.91457 3.1853-16.68845 5.0107-26.60161 6.2464-4.06002.506-17.33889.7476-21.38827.3891zm144.31322-40.8857c-.27807-.6549-11.32326-27.18821-24.54483-58.96281l-24.03921-57.77211h-59.82865c-32.90574 0-59.83954-.0308-59.85289-.0685-.01334-.0377-2.65014-37.754-5.85954-83.81411l-5.83528-83.745496-.93882-2.0966c-1.88891-4.218401-2.82978-8.250001-3.02921-12.980302-.68835-16.326402 10.6437-30.837603 26.57511-34.030404 3.42094-.6856 8.77105-.6189 12.37172.1543 9.73734 2.090901 17.91202 8.479401 22.41058 17.513702 2.51821 5.057301 3.58216 9.542901 3.5884 15.128802.01187 10.654201-4.77846 20.356102-13.29971 26.935803-3.90258 3.013495-10.17921 5.679295-14.42071 6.124895l-1.70838.1794.12134 1.4038c.146 1.689 3.57583 64.5565 3.57583 65.5436v.6909h83.68153v31.25041h-80.55175l.15589 1.9874c.08575 1.0931.42865 5.9073.76199 10.6984l.60608 8.7109 11.10763-.1505c25.04638-.3394 100.07867-.7168 100.26704-.5044.11155.1259 10.83523 25.423 23.83041 56.21601 12.99519 30.793 23.72281 55.9886 23.83913 55.9903.11634.0016 8.22386-2.9609 18.01667-6.5836 9.79281-3.6226 17.86755-6.5226 17.94382-6.4443.35366.3625 9.85894 23.8792 9.71213 24.0283-.16501.1676-62.8498 25.41641-63.70638 25.66041-.32021.0911-.58551-.2061-.94994-1.0642z"/>
  <g transform="matrix(0.9 0 0 0.9 1 1)">
    <path fill="none" stroke-width="37" stroke="#B00" d="M86,88a230,230 0 1,0 1,-1zL412,412"/>
  </g>
</svg>