<svg xmlns="http://www.w3.org/2000/svg" viewBox="0 0 24 24">
    <path
        d="M3.33 16H11V13H4L3.33 16M13 16H20.67L20 13H13V16M21.11 18H13V22H22L21.11 18M2 22H11V18H2.89L2 22M11 8H13V11H11V8M15.76 7.21L17.18 5.79L19.3 7.91L17.89 9.33L15.76 7.21M4.71 7.91L6.83 5.79L8.24 7.21L6.12 9.33L4.71 7.91M3 2H6V4H3V2M18 2H21V4H18V2M12 7C14.76 7 17 4.76 17 2H7C7 4.76 9.24 7 12 7Z"
        fill="#888" />
    <g transform="matrix(0.044 0 0 0.044 1 1)">
        <path fill="none" stroke-width="37" stroke="#B00" d="M86,88a230,230 0 1,0 1,-1zL412,412"/>
    </g>
</svg>