<svg version="1.1" width="1000" height="1000" xmlns="http://www.w3.org/2000/svg">
<defs>
</defs>
<g transform="matrix(1.85 0 0 1.85 500 500)" id="843162">
<path style="stroke: rgb(204,85,0); stroke-width: 50; stroke-dasharray: none; stroke-dashoffset: 0; stroke-linejoin: miter; stroke-miterlimit: 4; is-custom-font: none; font-file-url: none; fill: rgb(255,165,0); fill-rule: nonzero; opacity: 1;" transform=" translate(-255.6984, -251.0068)" d="M 12.51 470.379 L 234.371 16.008 c 6.439 -13.187 25.17 -13.363 31.855 -0.299 l 232.51 454.371 c 6.064 11.849 -2.542 25.92 -15.853 25.92 H 28.512 C 15.348 496 6.734 482.209 12.51 470.379 z" stroke-linecap="round"/>
</g>
<g transform="matrix(1 0 0 1 490 650)" style="" id="60298">
<path xml:space="preserve" font-family="Montserrat Alternates" font-size="700" font-style="normal" font-weight="bold" style="stroke: none; stroke-width: 1; stroke-dasharray: none; stroke-linecap: butt; stroke-dashoffset: 0; stroke-linejoin: miter; stroke-miterlimit: 4; is-custom-font: none; font-file-url: none; fill: rgb(255,255,255); fill-rule: nonzero; opacity: 1; white-space: pre;" d="M230.30-217.60L191.80-132.90Q128.80-169.30 56.70-179.80L56.70-179.80L56.70 219.90L-56.70 219.90L-56.70-179.80Q-128.80-169.30-192.50-132.90L-192.50-132.90L-231-217.60Q-180.60-247.70-121.80-263.10Q-63-278.50-0.70-278.50L-0.70-278.50Q62.30-278.50 121.45-263.10Q180.60-247.70 230.30-217.60L230.30-217.60Z"/></g>
</svg>