<?xml version="1.0" encoding="iso-8859-1"?>
<!-- Uploaded to: SVG Repo, www.svgrepo.com, Generator: SVG Repo Mixer Tools -->
<!DOCTYPE svg PUBLIC "-//W3C//DTD SVG 1.1//EN" "http://www.w3.org/Graphics/SVG/1.1/DTD/svg11.dtd">
<svg fill="#000000" height="800px" width="800px" version="1.1" id="Capa_1" xmlns="http://www.w3.org/2000/svg" xmlns:xlink="http://www.w3.org/1999/xlink" 
	 viewBox="0 0 283.494 283.494" xml:space="preserve">
<path d="M268.494,113.482c-8.284,0-15,6.716-15,15v32.153H223V27.042c0-8.284-6.716-15-15-15H15c-8.284,0-15,6.716-15,15v182.11
	c0,8.284,6.716,15,15,15h17.118c0.378,26.144,21.751,47.299,47.982,47.299s47.604-21.155,47.982-47.299H208c8.284,0,15-6.716,15-15
	v-18.518h45.494c8.284,0,15-6.716,15-15v-47.153C283.494,120.198,276.778,113.482,268.494,113.482z M80.101,241.452
	c-9.925,0-18-8.075-18-18s8.075-18,18-18s18,8.075,18,18S90.025,241.452,80.101,241.452z M193,194.153h-74.918
	c-8.786-11.363-22.539-18.701-37.981-18.701s-29.195,7.338-37.981,18.701H30V42.042h163V194.153z"/>
</svg>